<?xml version="1.0" encoding="utf-8"?>
<!-- Generator: Adobe Illustrator 24.2.1, SVG Export Plug-In . SVG Version: 6.00 Build 0)  -->
<svg version="1.1" id="Layer_1" xmlns="http://www.w3.org/2000/svg" xmlns:xlink="http://www.w3.org/1999/xlink" x="0px" y="0px"
	 viewBox="0 0 16 16" style="enable-background:new 0 0 16 16;" xml:space="preserve">
<g>
	<g>
		<path d="M10,9.5C10,9.5,10,9.5,10,9.5c-0.7,0.6-1.5,1-2.4,1c-0.9,0-1.7-0.3-2.3-1c0,0,0,0,0,0l-0.6,0.6c0,0,0,0,0,0
			c0.8,0.8,1.9,1.2,3,1.2c1.1,0,2.2-0.4,3-1.2c0,0,0,0,0,0L10,9.5z"/>
		<path d="M8.2,8.3h1.7c0,0,0,0,0,0V7c0-0.5-0.4-0.9-0.9-0.9C8.6,6.1,8.2,6.5,8.2,7L8.2,8.3C8.2,8.3,8.2,8.3,8.2,8.3z"/>
		<path d="M15.9,9.3L13.7,7V3.9c0-0.1,0-0.2-0.1-0.3l-1-1c-0.1-0.1-0.2-0.1-0.3-0.1l-2.6,0c-0.1,0-0.2,0.1-0.2,0.2v0.1c0,0,0,0,0,0
			L7.8,1.2c-0.1-0.1-0.4-0.1-0.5,0L0.1,8.5C0,8.6,0,8.8,0.1,9l0.8,0.8C1,9.9,1.1,9.9,1.2,9.9h1.5v3.6c0,0.1,0,0.2,0.1,0.3l0.8,0.8
			l0.2,0.2c0.1,0.1,0.2,0.1,0.3,0.1h9.3c0.2,0,0.4-0.2,0.4-0.4V9.9h2C16,9.9,16.1,9.5,15.9,9.3z M13.7,8.1h-1.8c0,0,0,0,0,0V13
			c0,0,0,0,0,0H3.4c0,0,0,0,0,0V8.1c0,0,0,0,0,0H1.5c0,0,0,0,0-0.1l6.1-6.1c0,0,0,0,0,0L10,4.3V3.2c0,0,0,0,0,0h1.8c0,0,0,0,0,0
			c0,0,0,0,0,0v2.9c0,0,0,0,0,0L13.7,8.1C13.7,8,13.7,8.1,13.7,8.1z"/>
		<path d="M5.3,8.3H7c0,0,0,0,0,0V7c0-0.5-0.4-0.9-0.9-0.9S5.2,6.5,5.2,7L5.3,8.3C5.2,8.3,5.2,8.3,5.3,8.3z"/>
	</g>
</g>
</svg>
